<?xml version="1.0" encoding="utf-8"?>
<!-- Generator: Adobe Illustrator 22.0.1, SVG Export Plug-In . SVG Version: 6.00 Build 0)  -->
<svg version="1.1" id="planet-mercury" xmlns="http://www.w3.org/2000/svg" xmlns:xlink="http://www.w3.org/1999/xlink" x="0px"
	 y="0px" viewBox="0 0 49.9 43.8" style="enable-background:new 0 0 49.9 43.8;" xml:space="preserve">
<style type="text/css">
	.st0{fill:url(#SVGID_1_);}
	.st1{fill:#FFFFFF;}
</style>
<linearGradient id="SVGID_1_" gradientUnits="userSpaceOnUse" x1="490.1329" y1="64.8978" x2="262.7996" y2="-25.1021">
	<stop  offset="0" style="stop-color:#A98B31"/>
	<stop  offset="5.109712e-02" style="stop-color:#B69941"/>
	<stop  offset="0.1543" style="stop-color:#D0B761"/>
	<stop  offset="0.2364" style="stop-color:#E2CD77"/>
	<stop  offset="0.2865" style="stop-color:#E9D680"/>
	<stop  offset="0.4918" style="stop-color:#B09237"/>
	<stop  offset="0.5865" style="stop-color:#9E7D22"/>
	<stop  offset="0.6582" style="stop-color:#A5852A"/>
	<stop  offset="0.7929" style="stop-color:#B99D43"/>
	<stop  offset="0.9459" style="stop-color:#DBC56D"/>
</linearGradient>
<path class="st0" d="M509.6,74.3c3.1-6.1,2.1-13.8-3.2-18.8s-13-5.7-19-2.3c-3.4-2.3-11.5-8.2-13.3-6.4c-1.6,1.6,1.7,7.5,6.6,13.8
	c-2.6,6-1.4,13.2,3.6,18c5,4.8,12.3,5.7,18.1,2.8c6.4,4.5,12.3,7.3,13.8,5.7C518.1,85.2,512.1,77.5,509.6,74.3z M506,55.9
	c3.2,3,4.7,7.1,4.7,11.1c-7.3-3.2-13.2-8.8-17.9-15.1C497.4,51.1,502.3,52.5,506,55.9z M489.9,52.7c0,0.1,0,0.1,0.1,0.2
	c5.1,7.4,11.9,13.9,20.4,17.1c-0.5,2.8-1.9,5.4-3.9,7.6c-0.4,0.4-0.8,0.7-1.1,1.1c-3.1-1.3-7.9-4.5-12.5-8.9c-4.7-4.5-8-9-9.4-12.1
	c0.3-0.4,0.7-0.8,1-1.2C486,54.7,487.9,53.5,489.9,52.7z M508.2,76.6c0.8,1.4,1.1,2.1,0.7,2.6c-0.4,0.4-1.4,0.3-2.9-0.2
	c0.3-0.3,0.6-0.6,0.9-0.9C507.4,77.6,507.8,77.1,508.2,76.6z M483,56.9c-0.6-1.4-0.7-2.4-0.3-2.9c0.4-0.4,1.1-0.2,2.6,0.6
	c-0.5,0.4-1,0.8-1.4,1.3C483.6,56.3,483.3,56.6,483,56.9z M480.3,53.8c-0.6-1.8,0.7-2.5,2-2.3c1.1,0.2,2.2,0.8,4.3,2.2
	c-0.2,0.2-0.5,0.3-0.7,0.5c-2.3-1.4-4-2-4.5-1.4c-0.5,0.6-0.1,2.4,1.1,4.8c-0.1,0.2-0.3,0.4-0.4,0.5
	C481.2,56.3,480.7,54.8,480.3,53.8z M495.9,82.3c-6.4-3.2-11.8-8.3-15.7-14.2c0-0.6,0-1.2,0-1.9c5.2,6,11.2,11.9,17.3,15.9
	C497,82.2,496.4,82.2,495.9,82.3z M498.9,81.9c-6-3.7-13.1-10.7-18.4-16.9c0-0.1-0.1-0.1-0.1-0.1c0.2-1.2,0.5-2.5,1-3.6
	c2.9,3.7,6.3,7.5,9.5,10.6c3.3,3.1,7.2,6.4,11,9.1C500.9,81.3,499.9,81.6,498.9,81.9z M504.2,79.5c-3.3-1.6-7.7-4.2-12.4-8.7
	c-4.7-4.5-7.5-8.7-9.3-12c0.1-0.2,0.2-0.4,0.4-0.6c1.9,3.5,5.1,8,9.4,12c4.3,4.1,8.9,7.1,12.4,8.8C504.5,79.3,504.4,79.4,504.2,79.5
	z M509.3,81.5c-1-0.3-2.5-0.8-4.4-1.7c0.2-0.1,0.3-0.2,0.5-0.4c2.5,1.1,4.3,1.5,4.9,0.9c0.5-0.6-0.1-2.2-1.6-4.5
	c0.2-0.2,0.3-0.5,0.5-0.7c1.6,2.1,2.2,3.1,2.4,4.2C511.8,80.7,511.3,82.1,509.3,81.5z"/>
<g>
	<g>
		<path class="st1" d="M24.9,9.4c-6.8,0-12.4,5.5-12.4,12.4c0,6.8,5.5,12.4,12.4,12.4c6.8,0,12.4-5.5,12.4-12.4
			C37.3,15,31.8,9.4,24.9,9.4z M24.9,33.3c-2.2,0-4.3-0.6-6.1-1.7l-0.1-0.1c-0.5-0.3-0.9-0.6-1.4-1c0.4-0.2,0.5-0.6,0.4-1
			c-0.1-0.4-0.4-0.7-0.8-0.8c-0.4,0-0.7,0.2-0.8,0.6c-1.7-2-2.8-4.6-2.8-7.5c0-6.3,5.2-11.5,11.5-11.5c2.9,0,5.5,1.1,7.5,2.8
			c-0.2,0.1-0.4,0.3-0.5,0.5c0,0.2,0,0.4,0.1,0.5c0.1,0.2,0.3,0.3,0.6,0.3h0c0,0,0,0,0,0c0.3,0,0.6-0.2,0.7-0.4
			c1.9,2,3.1,4.8,3.1,7.8C36.4,28.1,31.3,33.3,24.9,33.3z"/>
		<path class="st1" d="M28,31.2c0.4-0.2,0.5-0.6,0.5-1c-0.1-0.4-0.4-0.7-0.8-0.8c-0.7,0-1,0.7-0.7,1.3c0.2,0.3,0.5,0.5,0.9,0.5
			C27.9,31.3,27.9,31.2,28,31.2z"/>
		<path class="st1" d="M19.5,22.6c-0.2,0-0.4,0-0.6,0.1c-0.1,0-0.2,0.1-0.3,0.2c-0.2,0.2-0.1,0.4-0.1,0.7c0.1,0.4,0.4,0.9,0.9,0.8
			c0.7,0,1-1,0.6-1.5C19.9,22.8,19.7,22.7,19.5,22.6z"/>
		<path class="st1" d="M26,16.1L26,16.1C26,16.1,26.1,16.1,26,16.1c0.4,0,0.7-0.3,0.8-0.6c0.1-0.2,0.1-0.4-0.1-0.5
			c-0.1-0.2-0.3-0.3-0.6-0.2l0,0l0,0c0,0,0,0,0,0c-0.3,0-0.6,0.2-0.7,0.5c0,0.2,0,0.4,0.1,0.5C25.6,16,25.8,16.1,26,16.1z"/>
		<path class="st1" d="M19.8,13.1c-0.1,0-0.2-0.1-0.3-0.1c-0.2,0-0.4,0.1-0.5,0.2c-0.3,0.3-0.2,0.8,0,1.1c0.1,0.1,0.2,0.1,0.3,0.1
			c0.1,0,0.1,0,0.2,0c0,0,0.1,0,0.1-0.1c0.1-0.1,0.3-0.1,0.4-0.3c0.2-0.2,0.2-0.5,0.1-0.7C20,13.2,19.9,13.1,19.8,13.1z"/>
		<path class="st1" d="M26.1,31.9c-1.7,0.3-3.4,0-4.9-0.8c-0.2-0.1-0.4,0-0.5,0.2c-0.1,0.2,0,0.4,0.2,0.5c1.3,0.7,2.6,1,4,1
			c0.5,0,1,0,1.4-0.1c0.2,0,0.3-0.2,0.3-0.4C26.5,32.1,26.3,31.9,26.1,31.9z"/>
		<path class="st1" d="M28.9,31.3c-0.4,0.2-0.8,0.4-1.3,0.5c-0.1,0-0.2,0.1-0.3,0.2c0,0.1,0,0.3,0.1,0.4c0.1,0.1,0.2,0.1,0.3,0.1
			c0,0,0,0,0.1,0c0.5-0.1,1-0.3,1.5-0.5c0.1-0.1,0.2-0.2,0.2-0.3c0-0.1-0.1-0.3-0.2-0.3C29.2,31.3,29.1,31.3,28.9,31.3z"/>
		<path class="st1" d="M33.3,15.3c-0.1-0.1-0.3-0.1-0.4-0.1c-0.1,0.1-0.2,0.2-0.3,0.3c0,0.1,0,0.2,0.1,0.3c2.8,2.3,2.7,5.7,2.1,8.2
			c0,0.2,0.1,0.4,0.3,0.5c0,0,0.1,0,0.1,0c0.1,0,0.1,0,0.2,0c0.1,0,0.2-0.1,0.2-0.2C36.5,20.4,35.7,17.3,33.3,15.3z"/>
		<path class="st1" d="M34.4,25.5c-0.2,0-0.4,0.1-0.4,0.4v0c0,0.4-0.2,0.7-0.4,1c-0.2,0.2-0.1,0.4,0.1,0.6c0.1,0.1,0.1,0.1,0.2,0.1
			c0.1,0,0.2,0,0.3-0.1c0.3-0.4,0.5-0.9,0.6-1.5C34.7,25.7,34.6,25.6,34.4,25.5z"/>
		<path class="st1" d="M16.7,14.7c-1.5,1.7-2.4,3.7-2.6,6c0,0.2,0.1,0.4,0.3,0.4c0,0,0,0,0,0c0.2,0,0.4-0.1,0.4-0.4
			c0.2-2.1,1-4,2.4-5.5c0.2-0.2,0.1-0.4,0-0.5C17,14.6,16.8,14.6,16.7,14.7z"/>
		<path class="st1" d="M14.4,21.7c-0.1,0-0.2,0-0.3,0.1C14,21.9,14,22,14,22.1v0.7c0,0.2,0.2,0.4,0.4,0.4c0.2,0,0.4-0.2,0.4-0.4
			v-0.7C14.7,21.9,14.6,21.7,14.4,21.7z"/>
		<path class="st1" d="M31.1,16.7c-0.1-0.1-0.2-0.2-0.3-0.2c-0.1,0-0.3,0.1-0.3,0.2c-0.1,0.1-0.1,0.2,0,0.4c1.6,2.9,1.7,6.4,0.1,9.4
			c-0.1,0.2,0,0.4,0.2,0.5c0.1,0,0.1,0,0.2,0c0.1,0,0.2-0.1,0.3-0.2C33,23.6,32.9,19.8,31.1,16.7z"/>
	</g>
</g>
</svg>
