<?xml version="1.0" encoding="utf-8"?>
<!-- Generator: Adobe Illustrator 22.0.1, SVG Export Plug-In . SVG Version: 6.00 Build 0)  -->
<svg version="1.1" id="planet-pluto" xmlns="http://www.w3.org/2000/svg" xmlns:xlink="http://www.w3.org/1999/xlink" x="0px"
	 y="0px" viewBox="0 0 49.9 43.8" style="enable-background:new 0 0 49.9 43.8;" xml:space="preserve">
<style type="text/css">
	.st0{fill:url(#SVGID_1_);}
	.st1{fill:#FFFFFF;}
</style>
<linearGradient id="SVGID_1_" gradientUnits="userSpaceOnUse" x1="490.1329" y1="64.8978" x2="262.7996" y2="-25.1021">
	<stop  offset="0" style="stop-color:#A98B31"/>
	<stop  offset="5.109712e-02" style="stop-color:#B69941"/>
	<stop  offset="0.1543" style="stop-color:#D0B761"/>
	<stop  offset="0.2364" style="stop-color:#E2CD77"/>
	<stop  offset="0.2865" style="stop-color:#E9D680"/>
	<stop  offset="0.4918" style="stop-color:#B09237"/>
	<stop  offset="0.5865" style="stop-color:#9E7D22"/>
	<stop  offset="0.6582" style="stop-color:#A5852A"/>
	<stop  offset="0.7929" style="stop-color:#B99D43"/>
	<stop  offset="0.9459" style="stop-color:#DBC56D"/>
</linearGradient>
<path class="st0" d="M509.6,74.3c3.1-6.1,2.1-13.8-3.2-18.8s-13-5.7-19-2.3c-3.4-2.3-11.5-8.2-13.3-6.4c-1.6,1.6,1.7,7.5,6.6,13.8
	c-2.6,6-1.4,13.2,3.6,18c5,4.8,12.3,5.7,18.1,2.8c6.4,4.5,12.3,7.3,13.8,5.7C518.1,85.2,512.1,77.5,509.6,74.3z M506,55.9
	c3.2,3,4.7,7.1,4.7,11.1c-7.3-3.2-13.2-8.8-17.9-15.1C497.4,51.1,502.3,52.5,506,55.9z M489.9,52.7c0,0.1,0,0.1,0.1,0.2
	c5.1,7.4,11.9,13.9,20.4,17.1c-0.5,2.8-1.9,5.4-3.9,7.6c-0.4,0.4-0.8,0.7-1.1,1.1c-3.1-1.3-7.9-4.5-12.5-8.9c-4.7-4.5-8-9-9.4-12.1
	c0.3-0.4,0.7-0.8,1-1.2C486,54.7,487.9,53.5,489.9,52.7z M508.2,76.6c0.8,1.4,1.1,2.1,0.7,2.6c-0.4,0.4-1.4,0.3-2.9-0.2
	c0.3-0.3,0.6-0.6,0.9-0.9C507.4,77.6,507.8,77.1,508.2,76.6z M483,56.9c-0.6-1.4-0.7-2.4-0.3-2.9c0.4-0.4,1.1-0.2,2.6,0.6
	c-0.5,0.4-1,0.8-1.4,1.3C483.6,56.3,483.3,56.6,483,56.9z M480.3,53.8c-0.6-1.8,0.7-2.5,2-2.3c1.1,0.2,2.2,0.8,4.3,2.2
	c-0.2,0.2-0.5,0.3-0.7,0.5c-2.3-1.4-4-2-4.5-1.4c-0.5,0.6-0.1,2.4,1.1,4.8c-0.1,0.2-0.3,0.4-0.4,0.5
	C481.2,56.3,480.7,54.8,480.3,53.8z M495.9,82.3c-6.4-3.2-11.8-8.3-15.7-14.2c0-0.6,0-1.2,0-1.9c5.2,6,11.2,11.9,17.3,15.9
	C497,82.2,496.4,82.2,495.9,82.3z M498.9,81.9c-6-3.7-13.1-10.7-18.4-16.9c0-0.1-0.1-0.1-0.1-0.1c0.2-1.2,0.5-2.5,1-3.6
	c2.9,3.7,6.3,7.5,9.5,10.6c3.3,3.1,7.2,6.4,11,9.1C500.9,81.3,499.9,81.6,498.9,81.9z M504.2,79.5c-3.3-1.6-7.7-4.2-12.4-8.7
	c-4.7-4.5-7.5-8.7-9.3-12c0.1-0.2,0.2-0.4,0.4-0.6c1.9,3.5,5.1,8,9.4,12c4.3,4.1,8.9,7.1,12.4,8.8C504.5,79.3,504.4,79.4,504.2,79.5
	z M509.3,81.5c-1-0.3-2.5-0.8-4.4-1.7c0.2-0.1,0.3-0.2,0.5-0.4c2.5,1.1,4.3,1.5,4.9,0.9c0.5-0.6-0.1-2.2-1.6-4.5
	c0.2-0.2,0.3-0.5,0.5-0.7c1.6,2.1,2.2,3.1,2.4,4.2C511.8,80.7,511.3,82.1,509.3,81.5z"/>
<g>
	<path class="st1" d="M24.6,13.6c-5.3,0-9.6,4.3-9.6,9.6c0,5.3,4.3,9.6,9.6,9.6c5.3,0,9.6-4.3,9.6-9.6
		C34.1,17.9,29.9,13.6,24.6,13.6z M16.5,26.2c-0.1-0.4-0.2-0.7-0.3-1.1c0.1-0.1,0.2-0.2,0.2-0.3c0.4-3.1,4.6-2.4,6.6-3.8
		c1.8-1.2,2.2-6,4.7-5.6c0.2,0,0.3,0,0.5-0.1c0.3,0.1,0.6,0.3,0.9,0.5c-0.5,0.2-0.9,0.5-1.2,1.1c-0.8,1.4-0.2,2.6-1.6,3.8
		c-0.5,0.4-1.2,0.6-1.8,1c-0.8,0.6-1.1,1.4-1.8,2c-1.4,1.2-2.8,0.5-4.2,0.9C17.5,25,16.9,25.5,16.5,26.2z M24.6,14.5
		c0.5,0,1,0.1,1.5,0.1c-1.4,0.8-1.7,3.1-2.8,4.6c-1.7,2.4-5.8,1.5-7.3,3.7C16.1,18.3,19.9,14.5,24.6,14.5z M17.1,27.5
		c0.1-0.1,0.2-0.2,0.3-0.3c0.4-2.2,3.2-1.2,4.7-1.7c1.5-0.5,2-2,3.2-2.8c0.9-0.6,2-1,2.6-1.9c0.8-1.1,0.4-4,2.2-4c0.1,0,0.1,0,0.2,0
		c1,0.9,1.8,2,2.3,3.2c-0.8,0-1.4,0.2-2,0.9c-0.6,0.7-0.7,1.7-1.2,2.5c-0.6,0.9-1.8,1.1-2.5,1.8c-0.4,0.4-0.6,0.9-0.9,1.4
		c-0.8,1.1-1.8,1.4-3,2c-1.1,0.5-2,1.1-2.3,2.3C19.2,30,18,28.9,17.1,27.5z M24.6,31.8c-1,0-2-0.2-3-0.5c0.4-1.8,2.5-1.8,3.8-2.6
		c0.8-0.5,1-1.1,1.5-1.8c0.8-1.2,1.9-1.4,2.8-2.3c0.9-0.9,1.2-3.7,2.9-3.5c0.1,0,0.2,0,0.2,0c0.2,0.7,0.3,1.4,0.3,2.2
		C33.2,27.9,29.3,31.8,24.6,31.8z"/>
</g>
</svg>
