<?xml version="1.0" encoding="utf-8"?>
<!-- Generator: Adobe Illustrator 22.0.1, SVG Export Plug-In . SVG Version: 6.00 Build 0)  -->
<svg version="1.1" id="planet-pluto" xmlns="http://www.w3.org/2000/svg" xmlns:xlink="http://www.w3.org/1999/xlink" x="0px"
	 y="0px" viewBox="0 0 49.9 43.8" style="enable-background:new 0 0 49.9 43.8;" xml:space="preserve">
<style type="text/css">
	.st0{fill:#FF00DB;}
</style>
<g>
	<g>
		<path class="st0" d="M22.8,10.8c-1.6,0-2.8,1.3-2.8,2.8c0,1.6,1.3,2.8,2.8,2.8c1.6,0,2.8-1.3,2.8-2.8
			C25.7,12.1,24.4,10.8,22.8,10.8z M24.9,13.6c0,1.1-0.9,2-2,2s-2-0.9-2-2s0.9-2,2-2S24.9,12.5,24.9,13.6z"/>
		<path class="st0" d="M13.8,21.8c-0.9,0-1.6,0.7-1.6,1.6s0.7,1.6,1.6,1.6c0.9,0,1.6-0.7,1.6-1.6C15.4,22.5,14.7,21.8,13.8,21.8z"/>
		<path class="st0" d="M24.8,7.8c-7.8,0-14.1,6.3-14.1,14.1S17.1,36,24.8,36s14.1-6.3,14.1-14.1S32.6,7.8,24.8,7.8z M36.4,23.2
			c0,0.6,0.5,1.1,1.1,1.1c0.1,0,0.3,0,0.4-0.1c-0.6,3.3-2.5,6.4-5.2,8.4c0.1-0.3,0.2-0.7,0.2-1.1c0-0.9-0.3-1.7-1-2.3
			c1.5-0.9,2.5-2.5,2.5-4.3c0-2.7-2.2-5-5-5s-5,2.2-5,5c0,1.9,1,3.5,2.7,4.4c-0.6,0.6-0.9,1.4-0.9,2.2c0,1.5,0.9,2.7,2.3,3.2
			c-1.2,0.3-2.4,0.5-3.7,0.5c-0.2,0-0.4,0-0.7,0c0.3-0.2,0.4-0.5,0.4-0.9c0-0.6-0.5-1.1-1.1-1.1s-1.1,0.5-1.1,1.1
			c0,0.2,0.1,0.5,0.2,0.7c-1.8-0.3-3.5-1-5-2c0.2,0.1,0.5,0.1,0.7,0.1c1.8,0,3.3-1.5,3.3-3.3s-1.5-3.3-3.3-3.3s-3.3,1.5-3.3,3.3
			c0,0.4,0.1,0.9,0.2,1.3c-2.3-2.5-3.6-5.7-3.6-9.1c0-2,0.4-4,1.3-5.8c0.2,0.8,0.8,1.5,1.6,1.7c-0.1,0.3-0.1,0.6-0.1,0.9
			c0,1.8,1.5,3.3,3.3,3.3s3.3-1.5,3.3-3.3s-1.5-3.3-3.3-3.3c0,0,0,0-0.1,0c-0.1-1.2-1.1-2.2-2.4-2.2c-0.2,0-0.3,0-0.5,0
			c2.5-3,6.2-4.7,10.1-4.7c1.8,0,3.6,0.4,5.2,1.1c-1.7,0.1-3.1,1.6-3.1,3.3c0,1.8,1.5,3.3,3.3,3.3c0.5,0,0.9-0.1,1.4-0.3
			c0.4,0.4,1,0.7,1.7,0.7c1.3,0,2.4-1.1,2.4-2.4v-0.1c1.6,2.3,2.4,4.9,2.4,7.7c0,0.1,0,0.2,0,0.3c-0.2-0.1-0.4-0.2-0.6-0.2
			C36.9,22,36.4,22.5,36.4,23.2z"/>
	</g>
</g>
</svg>
