<?xml version="1.0" encoding="utf-8"?>
<!-- Generator: Adobe Illustrator 22.0.1, SVG Export Plug-In . SVG Version: 6.00 Build 0)  -->
<svg version="1.1" id="planet-mercury" xmlns="http://www.w3.org/2000/svg" xmlns:xlink="http://www.w3.org/1999/xlink" x="0px"
	 y="0px" viewBox="0 0 49.9 43.8" style="enable-background:new 0 0 49.9 43.8;" xml:space="preserve">
<style type="text/css">
	.st0{fill:#FF00DB;}
</style>
<g>
	<g>
		<path class="st0" d="M24.9,9.4c-6.8,0-12.4,5.5-12.4,12.4c0,6.8,5.5,12.4,12.4,12.4c6.8,0,12.4-5.5,12.4-12.4
			C37.3,15,31.8,9.4,24.9,9.4z M24.9,33.3c-2.2,0-4.3-0.6-6.1-1.7l-0.1-0.1c-0.5-0.3-0.9-0.6-1.4-1c0.4-0.2,0.5-0.6,0.4-1
			s-0.4-0.7-0.8-0.8c-0.4,0-0.7,0.2-0.8,0.6c-1.7-2-2.8-4.6-2.8-7.5c0-6.3,5.2-11.5,11.5-11.5c2.9,0,5.5,1.1,7.5,2.8
			c-0.2,0.1-0.4,0.3-0.5,0.5c0,0.2,0,0.4,0.1,0.5c0.1,0.2,0.3,0.3,0.6,0.3l0,0l0,0c0.3,0,0.6-0.2,0.7-0.4c1.9,2,3.1,4.8,3.1,7.8
			C36.4,28.1,31.3,33.3,24.9,33.3z"/>
		<path class="st0" d="M28,31.2c0.4-0.2,0.5-0.6,0.5-1c-0.1-0.4-0.4-0.7-0.8-0.8c-0.7,0-1,0.7-0.7,1.3c0.2,0.3,0.5,0.5,0.9,0.5
			C27.9,31.3,27.9,31.2,28,31.2z"/>
		<path class="st0" d="M19.5,22.6c-0.2,0-0.4,0-0.6,0.1c-0.1,0-0.2,0.1-0.3,0.2c-0.2,0.2-0.1,0.4-0.1,0.7c0.1,0.4,0.4,0.9,0.9,0.8
			c0.7,0,1-1,0.6-1.5C19.9,22.8,19.7,22.7,19.5,22.6z"/>
		<path class="st0" d="M26,16.1L26,16.1C26,16.1,26.1,16.1,26,16.1c0.4,0,0.7-0.3,0.8-0.6c0.1-0.2,0.1-0.4-0.1-0.5
			c-0.1-0.2-0.3-0.3-0.6-0.2l0,0l0,0l0,0c-0.3,0-0.6,0.2-0.7,0.5c0,0.2,0,0.4,0.1,0.5C25.6,16,25.8,16.1,26,16.1z"/>
		<path class="st0" d="M19.8,13.1c-0.1,0-0.2-0.1-0.3-0.1c-0.2,0-0.4,0.1-0.5,0.2c-0.3,0.3-0.2,0.8,0,1.1c0.1,0.1,0.2,0.1,0.3,0.1
			c0.1,0,0.1,0,0.2,0c0,0,0.1,0,0.1-0.1c0.1-0.1,0.3-0.1,0.4-0.3c0.2-0.2,0.2-0.5,0.1-0.7C20,13.2,19.9,13.1,19.8,13.1z"/>
		<path class="st0" d="M26.1,31.9c-1.7,0.3-3.4,0-4.9-0.8c-0.2-0.1-0.4,0-0.5,0.2s0,0.4,0.2,0.5c1.3,0.7,2.6,1,4,1
			c0.5,0,1,0,1.4-0.1c0.2,0,0.3-0.2,0.3-0.4C26.5,32.1,26.3,31.9,26.1,31.9z"/>
		<path class="st0" d="M28.9,31.3c-0.4,0.2-0.8,0.4-1.3,0.5c-0.1,0-0.2,0.1-0.3,0.2c0,0.1,0,0.3,0.1,0.4c0.1,0.1,0.2,0.1,0.3,0.1
			c0,0,0,0,0.1,0c0.5-0.1,1-0.3,1.5-0.5c0.1-0.1,0.2-0.2,0.2-0.3c0-0.1-0.1-0.3-0.2-0.3C29.2,31.3,29.1,31.3,28.9,31.3z"/>
		<path class="st0" d="M33.3,15.3c-0.1-0.1-0.3-0.1-0.4-0.1c-0.1,0.1-0.2,0.2-0.3,0.3c0,0.1,0,0.2,0.1,0.3c2.8,2.3,2.7,5.7,2.1,8.2
			c0,0.2,0.1,0.4,0.3,0.5h0.1c0.1,0,0.1,0,0.2,0c0.1,0,0.2-0.1,0.2-0.2C36.5,20.4,35.7,17.3,33.3,15.3z"/>
		<path class="st0" d="M34.4,25.5c-0.2,0-0.4,0.1-0.4,0.4l0,0c0,0.4-0.2,0.7-0.4,1c-0.2,0.2-0.1,0.4,0.1,0.6
			c0.1,0.1,0.1,0.1,0.2,0.1c0.1,0,0.2,0,0.3-0.1c0.3-0.4,0.5-0.9,0.6-1.5C34.7,25.7,34.6,25.6,34.4,25.5z"/>
		<path class="st0" d="M16.7,14.7c-1.5,1.7-2.4,3.7-2.6,6c0,0.2,0.1,0.4,0.3,0.4l0,0c0.2,0,0.4-0.1,0.4-0.4c0.2-2.1,1-4,2.4-5.5
			c0.2-0.2,0.1-0.4,0-0.5C17,14.6,16.8,14.6,16.7,14.7z"/>
		<path class="st0" d="M14.4,21.7c-0.1,0-0.2,0-0.3,0.1C14,21.9,14,22,14,22.1v0.7c0,0.2,0.2,0.4,0.4,0.4s0.4-0.2,0.4-0.4v-0.7
			C14.7,21.9,14.6,21.7,14.4,21.7z"/>
		<path class="st0" d="M31.1,16.7c-0.1-0.1-0.2-0.2-0.3-0.2c-0.1,0-0.3,0.1-0.3,0.2c-0.1,0.1-0.1,0.2,0,0.4c1.6,2.9,1.7,6.4,0.1,9.4
			c-0.1,0.2,0,0.4,0.2,0.5c0.1,0,0.1,0,0.2,0s0.2-0.1,0.3-0.2C33,23.6,32.9,19.8,31.1,16.7z"/>
	</g>
</g>
</svg>
