<?xml version="1.0" encoding="utf-8"?>
<!-- Generator: Adobe Illustrator 22.0.1, SVG Export Plug-In . SVG Version: 6.00 Build 0)  -->
<svg version="1.1" id="planet-home" xmlns="http://www.w3.org/2000/svg" xmlns:xlink="http://www.w3.org/1999/xlink" x="0px"
	 y="0px" viewBox="0 0 49.9 43.8" style="enable-background:new 0 0 49.9 43.8;" xml:space="preserve">
<style type="text/css">
	.st0{fill:#FF00DB;}
</style>
<g>
	<g>
		<g>
			<path class="st0" d="M22,33.5c-0.2,0-0.4-0.2-0.4-0.4v-7.3c0-0.2,0.2-0.4,0.4-0.4h5.9c0.2,0,0.4,0.2,0.4,0.4v7.1
				c0,0.2-0.2,0.4-0.4,0.4c-0.2,0-0.4-0.2-0.4-0.4v-6.7h-5.1v6.9C22.4,33.4,22.2,33.5,22,33.5z"/>
		</g>
		<g>
			<path class="st0" d="M17.7,18c-0.2,0-0.4-0.2-0.4-0.4v-6.1c0-0.2,0.2-0.4,0.4-0.4h3c0.2,0,0.4,0.2,0.4,0.4v3.2
				c0,0.2-0.2,0.4-0.4,0.4s-0.4-0.2-0.4-0.4v-2.8h-2.2v5.7C18.1,17.8,17.9,18,17.7,18z"/>
		</g>
		<g>
			<path class="st0" d="M36.1,22.1h-2.8c-0.2,0-0.4-0.2-0.4-0.4s0.2-0.4,0.4-0.4h1.9L24.9,11.1L14.8,21.3h1.9c0.2,0,0.4,0.2,0.4,0.4
				s-0.2,0.4-0.4,0.4h-2.8c-0.2,0-0.3-0.1-0.4-0.3c-0.1-0.2,0-0.3,0.1-0.4l11.1-11.1c0.2-0.2,0.4-0.2,0.6,0l11.1,11.1
				c0.1,0.1,0.2,0.3,0.1,0.4C36.4,22,36.2,22.1,36.1,22.1z"/>
		</g>
		<g>
			<path class="st0" d="M30.6,19.6c-0.1,0-0.2,0-0.3-0.1l-4.6-4.6c-0.2-0.2-0.2-0.4,0-0.6c0.2-0.2,0.4-0.2,0.6,0l4.6,4.6
				c0.2,0.2,0.2,0.4,0,0.6C30.8,19.6,30.7,19.6,30.6,19.6z"/>
		</g>
		<g>
			<path class="st0" d="M16.7,33.6c-0.2,0-0.4-0.2-0.4-0.4V21.7c0-0.2,0.2-0.4,0.4-0.4c0.2,0,0.4,0.2,0.4,0.4v11.5
				C17.1,33.4,16.9,33.6,16.7,33.6z"/>
		</g>
		<g>
			<path class="st0" d="M33.2,33.6c-0.2,0-0.4-0.2-0.4-0.4V21.7c0-0.2,0.2-0.4,0.4-0.4s0.4,0.2,0.4,0.4v11.5
				C33.6,33.4,33.5,33.6,33.2,33.6z"/>
		</g>
	</g>
	<g>
		<path class="st0" d="M33.2,33.6H16.7c-0.2,0-0.4-0.2-0.4-0.4s0.2-0.4,0.4-0.4h16.6c0.2,0,0.4,0.2,0.4,0.4
			C33.6,33.4,33.5,33.6,33.2,33.6z"/>
	</g>
</g>
</svg>
