<?xml version="1.0" encoding="utf-8"?>
<!-- Generator: Adobe Illustrator 22.0.1, SVG Export Plug-In . SVG Version: 6.00 Build 0)  -->
<svg version="1.1" id="planet-pluto" xmlns="http://www.w3.org/2000/svg" xmlns:xlink="http://www.w3.org/1999/xlink" x="0px"
	 y="0px" viewBox="0 0 49.9 43.8" style="enable-background:new 0 0 49.9 43.8;" xml:space="preserve">
<style type="text/css">
	.st0{fill:#FF00DB;}
</style>
<g>
	<path class="st0" d="M24.6,13.6c-5.3,0-9.6,4.3-9.6,9.6s4.3,9.6,9.6,9.6s9.6-4.3,9.6-9.6C34.1,17.9,29.9,13.6,24.6,13.6z
		 M16.5,26.2c-0.1-0.4-0.2-0.7-0.3-1.1c0.1-0.1,0.2-0.2,0.2-0.3c0.4-3.1,4.6-2.4,6.6-3.8c1.8-1.2,2.2-6,4.7-5.6c0.2,0,0.3,0,0.5-0.1
		c0.3,0.1,0.6,0.3,0.9,0.5c-0.5,0.2-0.9,0.5-1.2,1.1c-0.8,1.4-0.2,2.6-1.6,3.8c-0.5,0.4-1.2,0.6-1.8,1c-0.8,0.6-1.1,1.4-1.8,2
		c-1.4,1.2-2.8,0.5-4.2,0.9C17.5,25,16.9,25.5,16.5,26.2z M24.6,14.5c0.5,0,1,0.1,1.5,0.1c-1.4,0.8-1.7,3.1-2.8,4.6
		c-1.7,2.4-5.8,1.5-7.3,3.7C16.1,18.3,19.9,14.5,24.6,14.5z M17.1,27.5c0.1-0.1,0.2-0.2,0.3-0.3c0.4-2.2,3.2-1.2,4.7-1.7
		c1.5-0.5,2-2,3.2-2.8c0.9-0.6,2-1,2.6-1.9c0.8-1.1,0.4-4,2.2-4c0.1,0,0.1,0,0.2,0c1,0.9,1.8,2,2.3,3.2c-0.8,0-1.4,0.2-2,0.9
		c-0.6,0.7-0.7,1.7-1.2,2.5c-0.6,0.9-1.8,1.1-2.5,1.8c-0.4,0.4-0.6,0.9-0.9,1.4c-0.8,1.1-1.8,1.4-3,2c-1.1,0.5-2,1.1-2.3,2.3
		C19.2,30,18,28.9,17.1,27.5z M24.6,31.8c-1,0-2-0.2-3-0.5c0.4-1.8,2.5-1.8,3.8-2.6c0.8-0.5,1-1.1,1.5-1.8c0.8-1.2,1.9-1.4,2.8-2.3
		s1.2-3.7,2.9-3.5c0.1,0,0.2,0,0.2,0c0.2,0.7,0.3,1.4,0.3,2.2C33.2,27.9,29.3,31.8,24.6,31.8z"/>
</g>
</svg>
