<?xml version="1.0" encoding="utf-8"?>
<!-- Generator: Adobe Illustrator 22.0.1, SVG Export Plug-In . SVG Version: 6.00 Build 0)  -->
<svg version="1.1" id="jupiter" xmlns="http://www.w3.org/2000/svg" xmlns:xlink="http://www.w3.org/1999/xlink" x="0px" y="0px"
	 viewBox="0 0 49.9 43.8" style="enable-background:new 0 0 49.9 43.8;" xml:space="preserve">
<style type="text/css">
	.st0{fill:#FFFFFF;}
</style>
<g>
	<path class="st0" d="M24.9,3.4c-10.3,0-18.7,8.4-18.7,18.7s8.4,18.7,18.7,18.7s18.7-8.4,18.7-18.7S35.3,3.4,24.9,3.4z M8.4,28.9
		c1-0.1,1.7-0.6,2.6-1.1c1.9-1,3.5-0.5,5.5-0.4c2.8,0.1,5.7-0.5,8.2-1.9c1.3-0.7,2.3-1.7,3.5-2.4c1.4-0.8,3.7-0.5,5.3-0.9
		c3.1-0.6,6.1-1.8,9-3c0.1,0.4,0.1,0.8,0.2,1.2c-2.4,2-5.6,2-8.6,2.3c-2.7,0.3-4.9,0.8-7.2,2.4c-3.2,2.2-6,3.9-10.1,3.5
		c-1.5-0.2-2.9-0.7-4.4-0.5c-1.4,0.2-2.6,1-3.7,1.7C8.6,29.5,8.5,29.2,8.4,28.9z M7,22.1c0-1.2,0.1-2.3,0.3-3.4
		c2.4,0.2,3.9-1.5,5.6-3c2.7-2.4,4.9-0.6,7.9-1.1c1.3-0.2,2.4-0.9,3.6-1.4c1.5-0.6,2.9-1.1,4.4-1.5c3-0.9,6-1.5,9-1.9
		c1.3,1.4,2.4,3,3.3,4.8c-0.1,0-0.1,0-0.2,0.1c-3,1.8-6.4,1.3-9.8,1c-3.1-0.3-6.1-0.1-9.2,0.4c-2.5,0.4-5.2,0.8-7.3,2.5
		c-1,0.8-1.8,1.9-2.8,2.8c-1.4,1.2-3.1,1.6-4.8,1.8C7,22.8,7,22.4,7,22.1z M9.3,13.4c0.1,0,0.1,0,0.2-0.1c1.8-1.2,4.3-2.4,6.6-2.3
		c1.4,0.1,2.2,1,3.5,1.3c0.7,0.2,1.5,0.1,2.2,0c2.1-0.3,4.1-1.3,6.1-2.1c2.3-0.9,4.7-1.8,7-2.6c0.1,0,0.2-0.1,0.2-0.2
		c0.8,0.5,1.5,1.1,2.1,1.7c-2.5,0.4-5.1,0.8-7.5,1.5c-1.5,0.4-3,0.9-4.4,1.4c-1.3,0.5-2.7,1.3-4,1.6c-2.1,0.6-4.2-0.6-6.3-0.2
		c-3,0.6-4.1,4.7-7.4,4.4C7.9,16.3,8.5,14.8,9.3,13.4z M7.1,23.9c3-0.4,4.6-1.3,6.7-3.4c2.6-2.7,5.7-3.3,9.2-3.8
		c3.6-0.6,6.9-0.3,10.6,0c2.8,0.2,5.4,0.1,7.9-1.3c0,0,0.1-0.1,0.1-0.1c0.1,0.3,0.2,0.5,0.3,0.8c-0.1,0-0.1,0-0.2,0
		c-6.2,2.7-12.9,0.2-19.3,1.1c-2.4,0.3-4.7,1.1-6.5,2.7c-1.2,1-2.1,2.4-3.4,3.3c-1.5,1.1-3.3,1.3-5.1,1.6
		C7.2,24.4,7.1,24.2,7.1,23.9z M14.7,22c2.5-2.7,5.4-4,9.1-4.2c6.1-0.4,12.3,1.5,18.1-1.1c0,0,0,0,0,0c0.2,0.5,0.3,1.1,0.4,1.7
		c-3.2,1.3-6.4,2.6-9.8,3.2c-1.4,0.2-2.9,0-4.2,0.5c-1.1,0.4-2,1.5-3,2.1c-2.8,1.8-6.2,2.6-9.6,2.3c-1.4-0.1-2.8-0.5-4.2,0
		C10.3,27,9.5,28,8.1,28.1c-0.3-0.8-0.5-1.7-0.7-2.6C10.4,25.1,12.6,24.3,14.7,22z M29.7,4.8c-2.1,0.4-4,1.5-6.1,1.9
		c-1.7,0.3-3.1-0.6-4.8-0.4c-1.2,0.1-2.3,0.4-3.5,0.7c2.8-1.8,6.1-2.8,9.6-2.8C26.6,4.2,28.2,4.4,29.7,4.8z M13.8,8.1
		c0.1,0,0.1,0,0.2,0c1.9-0.4,4.2-1.2,6.2-1c1.2,0.2,2,0.6,3.2,0.4c2.9-0.3,5.3-2.3,8.3-2c0.1,0,0.1,0,0.2,0c0.4,0.2,0.8,0.3,1.2,0.5
		c-1.9,0.5-3.8,1.2-5.6,2c-2.3,1-4.9,2.6-7.5,1.4c-1.6-0.7-2.1-1.4-3.9-1c-1.4,0.3-2.8,0.9-4.1,1.4C12.4,9.3,13.1,8.7,13.8,8.1z
		 M41.5,28c-2.1,0.3-3.6,1.5-5.1,3c-2.2,2.4-4.4,4-7.6,4.9c-1.8,0.5-3.5,0.8-5.3,0.3c-1.2-0.3-2.4-0.9-3.7-1
		c-1.8-0.2-3.4,0.5-4.7,1.7c0,0,0,0-0.1,0.1c-0.4-0.3-0.9-0.6-1.3-0.9c4.3-4.3,11.4,0.3,16.5-2.1c4.3-2,7-7,12-7.5
		c-0.1,0.5-0.3,1.1-0.5,1.6C41.8,28,41.7,28,41.5,28z M24.9,40c-2,0-4-0.3-5.8-1c0.7-0.2,1.7-0.1,2.2-0.1c1.1,0,2.3,0,3.4,0
		c1.8,0,3.7,0,5.5-0.4c1.4-0.3,2.7-0.9,3.8-1.8c1.8-1.4,3.1-3.6,5.4-4.1C36.1,37.1,30.9,40,24.9,40z M42.5,25.8c0,0-0.1,0-0.1,0
		c-5.1,0.4-7.7,5.2-12,7.4c-5.4,2.7-12.5-2.3-17.2,2.5c-0.3-0.3-0.6-0.6-0.9-0.9c1.4-0.7,4.4-2,3-3.9c-1.2-1.6-4.1,0-5.4,0.9
		c-0.2-0.4-0.5-0.8-0.7-1.2c0.9-0.6,1.8-1.2,2.9-1.5c1.4-0.4,2.7,0,4.1,0.2c1.2,0.2,2.4,0.2,3.6,0.1c3.3-0.4,5.5-2.2,8.2-3.9
		c4.5-2.9,10.5-1,14.9-4.1c0,0.2,0,0.5,0,0.7C42.9,23.4,42.7,24.6,42.5,25.8z"/>
	<path class="st0" d="M27.1,20.6c0-1-1.3-1.3-1.9-1.3c-1.4,0-4.9,0.9-5.5,1.1c-1.1,0.4-5.8,2-4.2,4.1C17,26.3,27,21.9,27.1,20.6z"/>
</g>
</svg>
