<?xml version="1.0" encoding="utf-8"?>
<!-- Generator: Adobe Illustrator 22.0.1, SVG Export Plug-In . SVG Version: 6.00 Build 0)  -->
<svg version="1.1" id="planet-saturne" xmlns="http://www.w3.org/2000/svg" xmlns:xlink="http://www.w3.org/1999/xlink" x="0px"
	 y="0px" viewBox="0 0 49.9 43.8" style="enable-background:new 0 0 49.9 43.8;" xml:space="preserve">
<style type="text/css">
	.st0{fill:#FF00DB;}
</style>
<path class="st0" d="M39,28.9c3.1-6,2-13.5-3.1-18.4S23.2,4.9,17.4,8.2c-3.3-2.3-11.3-8-13-6.3c-1.5,1.6,1.7,7.4,6.4,13.5
	c-2.6,5.9-1.4,13,3.5,17.6c4.9,4.7,12,5.5,17.7,2.7c6.3,4.4,12,7.2,13.5,5.6C47.3,39.6,41.4,32.1,39,28.9z M35.4,10.9
	c3.1,3,4.6,6.9,4.6,10.9C32.9,18.7,27.1,13.2,22.5,7C27,6.2,31.9,7.5,35.4,10.9z M19.7,7.8c0,0.1,0,0.1,0.1,0.2
	c5,7.2,11.6,13.6,20,16.7c-0.5,2.7-1.8,5.3-3.9,7.4c-0.4,0.4-0.7,0.7-1.1,1c-3.1-1.3-7.7-4.4-12.2-8.7c-4.6-4.4-7.8-8.8-9.2-11.8
	c0.3-0.4,0.6-0.8,1-1.2C15.9,9.8,17.7,8.6,19.7,7.8z M37.6,31.1c0.8,1.4,1.1,2.1,0.7,2.5c-0.4,0.4-1.4,0.3-2.8-0.2
	c0.3-0.3,0.6-0.6,0.9-0.9C36.8,32.1,37.2,31.6,37.6,31.1z M13,11.9c-0.6-1.4-0.7-2.4-0.3-2.8c0.4-0.4,1.1-0.2,2.5,0.6
	c-0.5,0.4-1,0.8-1.4,1.3C13.5,11.2,13.3,11.6,13,11.9z M10.3,8.8c-0.6-1.7,0.7-2.5,2-2.3c1.1,0.2,2.2,0.8,4.2,2.2
	C16.3,8.9,16,9,15.8,9.2c-2.3-1.4-3.9-1.9-4.4-1.4c-0.5,0.6-0.1,2.3,1.1,4.7c-0.1,0.2-0.2,0.3-0.4,0.5C11.2,11.3,10.7,9.8,10.3,8.8z
	 M25.6,36.7c-6.2-3.1-11.6-8.1-15.4-13.9c0-0.6,0-1.2,0-1.8c5.1,5.9,10.9,11.6,17,15.6C26.6,36.6,26.1,36.7,25.6,36.7z M28.5,36.3
	c-5.9-3.7-12.8-10.5-18-16.6c0-0.1-0.1-0.1-0.1-0.1c0.2-1.2,0.5-2.4,1-3.6c2.8,3.6,6.2,7.3,9.3,10.4c3.2,3.1,7.1,6.2,10.8,8.9
	C30.5,35.7,29.5,36.1,28.5,36.3z M33.7,34c-3.3-1.5-7.5-4.1-12.1-8.5s-7.4-8.5-9.1-11.7c0.1-0.2,0.2-0.4,0.4-0.5
	c1.8,3.4,5,7.8,9.2,11.8s8.7,7,12.2,8.6C34,33.8,33.8,33.9,33.7,34z M38.7,35.9c-1-0.3-2.5-0.8-4.3-1.6c0.2-0.1,0.3-0.2,0.4-0.3
	c2.4,1.1,4.2,1.4,4.8,0.9c0.5-0.6-0.1-2.2-1.6-4.4c0.2-0.2,0.3-0.5,0.5-0.7c1.5,2,2.2,3.1,2.4,4.1C41.1,35.2,40.6,36.6,38.7,35.9z"
	/>
</svg>
