<?xml version="1.0" encoding="utf-8"?>
<!-- Generator: Adobe Illustrator 22.0.1, SVG Export Plug-In . SVG Version: 6.00 Build 0)  -->
<svg version="1.1" id="planet-saturne" xmlns="http://www.w3.org/2000/svg" xmlns:xlink="http://www.w3.org/1999/xlink" x="0px"
	 y="0px" viewBox="0 0 49.9 43.8" style="enable-background:new 0 0 49.9 43.8;" xml:space="preserve">
<style type="text/css">
	.st0{fill:url(#SVGID_1_);}
	.st1{fill:#FFFFFF;}
</style>
<linearGradient id="SVGID_1_" gradientUnits="userSpaceOnUse" x1="490.1329" y1="64.8978" x2="262.7996" y2="-25.1021">
	<stop  offset="0" style="stop-color:#A98B31"/>
	<stop  offset="5.109712e-02" style="stop-color:#B69941"/>
	<stop  offset="0.1543" style="stop-color:#D0B761"/>
	<stop  offset="0.2364" style="stop-color:#E2CD77"/>
	<stop  offset="0.2865" style="stop-color:#E9D680"/>
	<stop  offset="0.4918" style="stop-color:#B09237"/>
	<stop  offset="0.5865" style="stop-color:#9E7D22"/>
	<stop  offset="0.6582" style="stop-color:#A5852A"/>
	<stop  offset="0.7929" style="stop-color:#B99D43"/>
	<stop  offset="0.9459" style="stop-color:#DBC56D"/>
</linearGradient>
<path class="st0" d="M509.6,74.3c3.1-6.1,2.1-13.8-3.2-18.8s-13-5.7-19-2.3c-3.4-2.3-11.5-8.2-13.3-6.4c-1.6,1.6,1.7,7.5,6.6,13.8
	c-2.6,6-1.4,13.2,3.6,18c5,4.8,12.3,5.7,18.1,2.8c6.4,4.5,12.3,7.3,13.8,5.7C518.1,85.2,512.1,77.5,509.6,74.3z M506,55.9
	c3.2,3,4.7,7.1,4.7,11.1c-7.3-3.2-13.2-8.8-17.9-15.1C497.4,51.1,502.3,52.5,506,55.9z M489.9,52.7c0,0.1,0,0.1,0.1,0.2
	c5.1,7.4,11.9,13.9,20.4,17.1c-0.5,2.8-1.9,5.4-3.9,7.6c-0.4,0.4-0.8,0.7-1.1,1.1c-3.1-1.3-7.9-4.5-12.5-8.9c-4.7-4.5-8-9-9.4-12.1
	c0.3-0.4,0.7-0.8,1-1.2C486,54.7,487.9,53.5,489.9,52.7z M508.2,76.6c0.8,1.4,1.1,2.1,0.7,2.6c-0.4,0.4-1.4,0.3-2.9-0.2
	c0.3-0.3,0.6-0.6,0.9-0.9C507.4,77.6,507.8,77.1,508.2,76.6z M483,56.9c-0.6-1.4-0.7-2.4-0.3-2.9c0.4-0.4,1.1-0.2,2.6,0.6
	c-0.5,0.4-1,0.8-1.4,1.3C483.6,56.3,483.3,56.6,483,56.9z M480.3,53.8c-0.6-1.8,0.7-2.5,2-2.3c1.1,0.2,2.2,0.8,4.3,2.2
	c-0.2,0.2-0.5,0.3-0.7,0.5c-2.3-1.4-4-2-4.5-1.4c-0.5,0.6-0.1,2.4,1.1,4.8c-0.1,0.2-0.3,0.4-0.4,0.5
	C481.2,56.3,480.7,54.8,480.3,53.8z M495.9,82.3c-6.4-3.2-11.8-8.3-15.7-14.2c0-0.6,0-1.2,0-1.9c5.2,6,11.2,11.9,17.3,15.9
	C497,82.2,496.4,82.2,495.9,82.3z M498.9,81.9c-6-3.7-13.1-10.7-18.4-16.9c0-0.1-0.1-0.1-0.1-0.1c0.2-1.2,0.5-2.5,1-3.6
	c2.9,3.7,6.3,7.5,9.5,10.6c3.3,3.1,7.2,6.4,11,9.1C500.9,81.3,499.9,81.6,498.9,81.9z M504.2,79.5c-3.3-1.6-7.7-4.2-12.4-8.7
	c-4.7-4.5-7.5-8.7-9.3-12c0.1-0.2,0.2-0.4,0.4-0.6c1.9,3.5,5.1,8,9.4,12c4.3,4.1,8.9,7.1,12.4,8.8C504.5,79.3,504.4,79.4,504.2,79.5
	z M509.3,81.5c-1-0.3-2.5-0.8-4.4-1.7c0.2-0.1,0.3-0.2,0.5-0.4c2.5,1.1,4.3,1.5,4.9,0.9c0.5-0.6-0.1-2.2-1.6-4.5
	c0.2-0.2,0.3-0.5,0.5-0.7c1.6,2.1,2.2,3.1,2.4,4.2C511.8,80.7,511.3,82.1,509.3,81.5z"/>
<path class="st1" d="M39,28.9c3.1-6,2-13.5-3.1-18.4c-5.1-4.9-12.7-5.6-18.5-2.3c-3.3-2.3-11.3-8-13-6.3c-1.5,1.6,1.7,7.4,6.4,13.5
	C8.2,21.3,9.4,28.4,14.3,33c4.9,4.7,12,5.5,17.7,2.7c6.3,4.4,12,7.2,13.5,5.6C47.3,39.6,41.4,32.1,39,28.9z M35.4,10.9
	c3.1,3,4.6,6.9,4.6,10.9C32.9,18.7,27.1,13.2,22.5,7C27,6.2,31.9,7.5,35.4,10.9z M19.7,7.8c0,0.1,0,0.1,0.1,0.2
	c5,7.2,11.6,13.6,20,16.7c-0.5,2.7-1.8,5.3-3.9,7.4c-0.4,0.4-0.7,0.7-1.1,1c-3.1-1.3-7.7-4.4-12.2-8.7c-4.6-4.4-7.8-8.8-9.2-11.8
	c0.3-0.4,0.6-0.8,1-1.2C15.9,9.8,17.7,8.6,19.7,7.8z M37.6,31.1c0.8,1.4,1.1,2.1,0.7,2.5c-0.4,0.4-1.4,0.3-2.8-0.2
	c0.3-0.3,0.6-0.6,0.9-0.9C36.8,32.1,37.2,31.6,37.6,31.1z M13,11.9c-0.6-1.4-0.7-2.4-0.3-2.8c0.4-0.4,1.1-0.2,2.5,0.6
	c-0.5,0.4-1,0.8-1.4,1.3C13.5,11.2,13.3,11.6,13,11.9z M10.3,8.8c-0.6-1.7,0.7-2.5,2-2.3c1.1,0.2,2.2,0.8,4.2,2.2
	C16.3,8.9,16,9,15.8,9.2c-2.3-1.4-3.9-1.9-4.4-1.4c-0.5,0.6-0.1,2.3,1.1,4.7c-0.1,0.2-0.2,0.3-0.4,0.5C11.2,11.3,10.7,9.8,10.3,8.8z
	 M25.6,36.7c-6.2-3.1-11.6-8.1-15.4-13.9c0-0.6,0-1.2,0-1.8c5.1,5.9,10.9,11.6,17,15.6C26.6,36.6,26.1,36.7,25.6,36.7z M28.5,36.3
	c-5.9-3.7-12.8-10.5-18-16.6c0-0.1-0.1-0.1-0.1-0.1c0.2-1.2,0.5-2.4,1-3.6c2.8,3.6,6.2,7.3,9.3,10.4c3.2,3.1,7.1,6.2,10.8,8.9
	C30.5,35.7,29.5,36.1,28.5,36.3z M33.7,34c-3.3-1.5-7.5-4.1-12.1-8.5c-4.6-4.4-7.4-8.5-9.1-11.7c0.1-0.2,0.2-0.4,0.4-0.5
	c1.8,3.4,5,7.8,9.2,11.8c4.2,4,8.7,7,12.2,8.6C34,33.8,33.8,33.9,33.7,34z M38.7,35.9c-1-0.3-2.5-0.8-4.3-1.6
	c0.2-0.1,0.3-0.2,0.4-0.3c2.4,1.1,4.2,1.4,4.8,0.9c0.5-0.6-0.1-2.2-1.6-4.4c0.2-0.2,0.3-0.5,0.5-0.7c1.5,2,2.2,3.1,2.4,4.1
	C41.1,35.2,40.6,36.6,38.7,35.9z"/>
</svg>
