<?xml version="1.0" encoding="utf-8"?>
<!-- Generator: Adobe Illustrator 22.0.1, SVG Export Plug-In . SVG Version: 6.00 Build 0)  -->
<svg version="1.1" id="planet-uranus" xmlns="http://www.w3.org/2000/svg" xmlns:xlink="http://www.w3.org/1999/xlink" x="0px"
	 y="0px" viewBox="0 0 49.9 43.8" style="enable-background:new 0 0 49.9 43.8;" xml:space="preserve">
<style type="text/css">
	.st0{fill:#FFFFFF;}
</style>
<g>
	<path class="st0" d="M36.6,17.9c-1.7-5.5-6.9-9.2-12.6-9c-2.8-5.9-4.8-8.6-6.1-8.2C16,1.3,16.6,6.6,17.4,11
		c-4.8,3.1-6.9,9.1-5.2,14.5c1.7,5.3,6.7,9,12.2,9c0.1,0,0.2,0,0.3,0c1.7,3.8,4.1,8.2,5.9,8.2c0.1,0,0.2,0,0.3,0
		c1.3-0.4,1.5-3.8,0.4-10.2C36.1,29.4,38.3,23.4,36.6,17.9z M20.4,23c1.1,3.7,2.5,7.5,3.9,10.7c-5.2,0-9.8-3.4-11.4-8.4
		c-1.5-4.9,0.3-10.4,4.6-13.3C18.2,15.4,19.2,19.3,20.4,23z M20.6,9.5c-0.8,0.3-1.6,0.6-2.4,1c-1-5.8-0.8-8.7-0.1-8.9c0,0,0,0,0,0
		c0.5,0,2.2,1.7,4.9,7.4C22.2,9.1,21.3,9.3,20.6,9.5z M34.9,27.3c-1.5,2.8-4,4.9-7,5.8c-0.9,0.3-1.7,0.4-2.6,0.5
		c-1.4-3.3-2.8-7-4.1-10.9c-1.2-3.9-2.2-7.8-2.9-11.3c0.8-0.5,1.6-0.8,2.5-1.1c6.3-2,13,1.6,14.9,7.8C36.7,21.2,36.4,24.4,34.9,27.3
		z M28.2,33.9c0.8-0.2,1.6-0.6,2.3-1c1,6.4,0.6,8.8,0.2,8.9c-0.7,0.2-2.5-2-5-7.4C26.5,34.4,27.3,34.2,28.2,33.9z"/>
</g>
</svg>
