<?xml version="1.0" encoding="utf-8"?>
<!-- Generator: Adobe Illustrator 22.0.1, SVG Export Plug-In . SVG Version: 6.00 Build 0)  -->
<svg version="1.1" id="planet-neptune" xmlns="http://www.w3.org/2000/svg" xmlns:xlink="http://www.w3.org/1999/xlink" x="0px"
	 y="0px" viewBox="0 0 49.9 43.8" style="enable-background:new 0 0 49.9 43.8;" xml:space="preserve">
<style type="text/css">
	.st0{fill:#FFFFFF;}
</style>
<g>
	<g>
		<path class="st0" d="M24.9,43c-5.1,0-10-1.8-13.8-5.2c-1.1-1-2.2-2.1-3.1-3.4c-0.7-0.9-1.3-1.8-1.8-2.9c-0.4-0.7-0.7-1.4-1-2.1
			c-0.1-0.3-0.3-0.7-0.4-1C4.5,27.2,4.2,26,4,24.7c-0.1-0.7-0.2-1.4-0.2-2.2c0-0.2,0-0.4,0-0.6c0-1.4,0.1-2.7,0.4-4
			c0.4-2,1.1-4,2.1-5.9c0.3-0.5,0.6-1,0.9-1.5C8.2,8.9,9.5,7.4,11,6c3.9-3.4,8.8-5.3,14-5.3c4.5,0,8.7,1.4,12.3,4
			c2,1.4,3.7,3.2,5.1,5.2c0.5,0.7,1,1.5,1.4,2.3c0.6,1.1,1,2.2,1.4,3.4c0.3,0.8,0.5,1.7,0.6,2.6c0.2,1.1,0.3,2.3,0.3,3.4
			c0,0.1,0,0.2,0,0.2c0,2.4-0.4,4.7-1.2,7c-0.1,0.4-0.3,0.8-0.5,1.2c-0.7,1.8-1.8,3.5-3,5c-0.3,0.4-0.6,0.7-0.9,1
			C36.6,40.5,30.9,43,24.9,43z M24.9,3.9c-4.4,0-8.6,1.6-11.9,4.5c-1.3,1.1-2.4,2.4-3.3,3.8c-0.3,0.4-0.5,0.8-0.7,1.2
			c-0.8,1.6-1.4,3.3-1.8,5C7.1,19.6,7,20.7,7,21.9c0,0.1,0,0.3,0,0.4c0,0,0,0.1,0,0.1c0,0.7,0.1,1.3,0.1,1.9
			c0.1,1.1,0.4,2.2,0.7,3.2c0.1,0.3,0.2,0.6,0.3,0.9C8.4,29,8.7,29.5,9,30.2c0.4,0.9,1,1.7,1.5,2.4c0.8,1.1,1.7,2,2.7,2.9
			c3.3,2.8,7.4,4.4,11.7,4.4c5,0,9.9-2.1,13.3-5.9c0.2-0.3,0.5-0.5,0.7-0.9c1.1-1.3,1.9-2.7,2.5-4.2c0.1-0.3,0.3-0.7,0.4-1
			c0.7-1.9,1-3.9,1-6c0-0.1,0-0.1,0-0.2c0-1-0.1-2-0.3-3c-0.1-0.7-0.3-1.5-0.5-2.2c-0.3-1-0.7-2-1.2-2.9c-0.3-0.7-0.7-1.3-1.2-2
			c-1.2-1.7-2.6-3.2-4.3-4.4C32.3,5.1,28.7,3.9,24.9,3.9z"/>
	</g>
	<g>
		<path class="st0" d="M14.7,13.6c-2.5,0-4.7-0.3-6.5-0.7c-0.9-0.2-1.4-1-1.2-1.9c0.2-0.9,1-1.4,1.9-1.2c4.5,0.9,11.6,1.2,19.8-2.7
			c2.6-1.2,5.1-2.2,7.4-2.7c0.8-0.2,1.7,0.3,1.9,1.2c0.2,0.8-0.3,1.7-1.2,1.9c-2.1,0.5-4.4,1.4-6.8,2.5C24.2,12.8,19,13.6,14.7,13.6
			z"/>
	</g>
	<g>
		<path class="st0" d="M44.5,23.3C44.5,23.3,44.5,23.3,44.5,23.3c-4.2,0-9.1-0.8-14.5-2.2c-10.6-2.8-18.8-2.3-23.8-1.4
			c-0.1,0-0.3,0-0.4,0c-0.9,0-1.6-0.7-1.6-1.6v0c0-0.8,0.5-1.4,1.3-1.6c5.3-1,14.1-1.6,25.3,1.4c5.1,1.4,9.8,2.1,13.7,2.1
			c0.9,0,1.6,0.7,1.6,1.6C46.1,22.6,45.3,23.3,44.5,23.3z"/>
	</g>
	<g>
		<path class="st0" d="M40.5,30c-7.4,0-13.7-1.1-18.7-3.3C15,23.8,9.5,24.7,6.2,26c-0.8,0.3-1.7-0.1-2-0.9c-0.3-0.8,0.1-1.7,0.9-2
			c3.9-1.5,10.2-2.6,18,0.8c5.2,2.2,12.2,3.3,20.3,3c0.9,0,1.6,0.7,1.6,1.5c0,0.9-0.7,1.6-1.5,1.6C42.4,30,41.5,30,40.5,30z"/>
	</g>
	<g>
		<path class="st0" d="M12.2,38.2c-0.8,0-1.5-0.6-1.6-1.5c-0.1-0.9,0.6-1.6,1.5-1.7c2.3-0.2,5-0.6,8-1.2c5.5-1.2,12.2-1.6,20.2-1.3
			c0.9,0,1.6,0.8,1.5,1.6c0,0.9-0.8,1.5-1.6,1.5c-7.7-0.3-14.2,0.1-19.4,1.2c-3.1,0.7-6,1.1-8.4,1.3C12.2,38.2,12.2,38.2,12.2,38.2z
			"/>
	</g>
	<g>
		<path class="st0" d="M41.3,17.8c-4.4,0-8.9-1.3-8.9-4.3c0-2.9,4.3-4.2,8.5-4.3c0.5,0,1,0.2,1.3,0.7c0.5,0.7,1,1.5,1.4,2.3
			c0.6,1.1,1,2.2,1.4,3.4c0.1,0.4,0.1,0.9-0.2,1.3c-0.3,0.4-0.7,0.7-1.1,0.7C43,17.8,42.2,17.8,41.3,17.8z M35.8,13.5
			c0.7,0.5,2.6,1.1,5.5,1.1c0,0,0,0,0,0c-0.1-0.3-0.3-0.7-0.5-1c-0.2-0.4-0.5-0.8-0.7-1.2C37.9,12.6,36.4,13.1,35.8,13.5z"/>
	</g>
	<g>
		<path class="st0" d="M7.6,32.5c-0.9,0-1.6-0.7-1.6-1.5c0-0.2,0-0.4,0.1-0.5c-0.6-0.2-1-0.8-1-1.5c0-0.9,0.7-1.6,1.6-1.6
			c2.3,0,4.4,0.2,5.9,0.4c1.6,0.2,3.7,0.5,3.7,2.2C16.3,31.6,15.1,32.3,7.6,32.5C7.6,32.5,7.6,32.5,7.6,32.5z"/>
	</g>
</g>
</svg>
